<svg width="202" height="48" viewBox="0 0 202 48" fill="none" xmlns="http://www.w3.org/2000/svg">
<path d="M5.90036 8.27243C10.3863 4.33257 17.084 3.39254 22.5998 5.54218C30.5003 8.37611 35.0691 17.7557 32.878 25.7668C31.9172 29.0984 30.051 32.0567 28.2608 34.9943C26.6295 32.188 24.3278 29.8587 21.487 28.2758C23.7887 25.8635 25.3439 22.2624 23.761 19.0414C21.8671 13.9541 14.4021 12.4611 10.8701 16.6913C7.55233 19.9537 8.51311 25.2898 11.5751 28.3657C8.7412 29.7412 6.57774 32.0844 5.25063 34.9252C2.09875 31.0061 -0.424145 26.1815 0.0596963 20.9975C-0.202961 16.1038 2.30611 11.4589 5.90036 8.27243Z" fill="white"/>
<path d="M11.4097 42.6181C12.4396 37.8903 13.0962 33.0933 14.057 28.3517C15.6882 28.3586 17.3125 28.3586 18.9438 28.3586C19.946 33.0657 20.6649 37.8281 21.6187 42.549C19.9598 44.0627 18.6396 46.3437 16.5177 47.1109C14.4302 46.3022 13.0962 44.0765 11.4097 42.6181Z" fill="white"/>
<path d="M60.416 39.3533C58.5787 39.3533 56.8591 39.0353 55.2573 38.3993C53.6556 37.7398 52.254 36.8329 51.0527 35.6787C49.8749 34.5244 48.9444 33.1818 48.2613 31.6507C47.6018 30.096 47.272 28.4236 47.272 26.6333C47.272 24.8196 47.6018 23.1471 48.2613 21.616C48.9444 20.0613 49.8867 18.7069 51.088 17.5527C52.2893 16.3984 53.6791 15.5033 55.2573 14.8673C56.8591 14.2078 58.5787 13.878 60.416 13.878C61.7822 13.878 63.1013 14.0664 64.3733 14.4433C65.6453 14.8202 66.8231 15.3502 67.9067 16.0333C69.0138 16.7164 69.956 17.5409 70.7333 18.5067L67.2707 21.934C66.3756 20.8269 65.3391 19.9907 64.1613 19.4253C63.0071 18.86 61.7587 18.5773 60.416 18.5773C59.3089 18.5773 58.2724 18.7893 57.3067 19.2133C56.3409 19.6138 55.5047 20.1791 54.798 20.9093C54.0913 21.616 53.5378 22.464 53.1373 23.4533C52.7369 24.4191 52.5367 25.4791 52.5367 26.6333C52.5367 27.764 52.7369 28.824 53.1373 29.8133C53.5378 30.7791 54.1031 31.6271 54.8333 32.3573C55.5636 33.064 56.4116 33.6176 57.3773 34.018C58.3667 34.4184 59.4384 34.6187 60.5927 34.6187C61.8882 34.6187 63.1013 34.3478 64.232 33.806C65.3627 33.2642 66.3638 32.4869 67.2353 31.474L70.592 34.7953C69.8147 35.7376 68.8842 36.5502 67.8007 37.2333C66.7171 37.9164 65.5393 38.4464 64.2673 38.8233C63.0189 39.1767 61.7351 39.3533 60.416 39.3533ZM72.916 39V14.2667L77.7567 13.2067V22.1107C79.1464 20.8622 80.866 20.238 82.9153 20.238C84.3522 20.238 85.6124 20.556 86.696 21.192C87.8031 21.8044 88.6629 22.6642 89.2753 23.7713C89.8878 24.8549 90.194 26.1269 90.194 27.5873V39H85.3533V28.294C85.3533 27.0927 85.0118 26.1504 84.3287 25.4673C83.6456 24.7607 82.7151 24.4073 81.5373 24.4073C80.7129 24.4073 79.9827 24.5722 79.3467 24.902C78.7107 25.2082 78.1807 25.6558 77.7567 26.2447V39H72.916ZM99.3727 39.318C98.0535 39.318 96.8875 39.0824 95.8747 38.6113C94.8618 38.1167 94.0727 37.4453 93.5073 36.5973C92.942 35.7493 92.6593 34.7718 92.6593 33.6647C92.6593 31.898 93.3189 30.5318 94.638 29.566C95.9807 28.5767 97.818 28.082 100.15 28.082C101.752 28.082 103.259 28.3293 104.673 28.824V27.4813C104.673 26.4213 104.343 25.6204 103.683 25.0787C103.024 24.5369 102.058 24.266 100.786 24.266C100.009 24.266 99.1724 24.3956 98.2773 24.6547C97.3822 24.8902 96.3458 25.2671 95.168 25.7853L93.4013 22.2167C94.8618 21.5571 96.2515 21.0624 97.5707 20.7327C98.9133 20.4029 100.256 20.238 101.599 20.238C104.072 20.238 105.992 20.8387 107.358 22.04C108.748 23.2178 109.443 24.8902 109.443 27.0573V39H104.673V37.6927C103.919 38.258 103.106 38.6702 102.235 38.9293C101.363 39.1884 100.409 39.318 99.3727 39.318ZM97.2527 33.5587C97.2527 34.2653 97.5589 34.8307 98.1713 35.2547C98.7838 35.6551 99.5964 35.8553 100.609 35.8553C101.41 35.8553 102.152 35.7611 102.835 35.5727C103.518 35.3607 104.131 35.0544 104.673 34.654V31.9687C104.084 31.7331 103.471 31.5564 102.835 31.4387C102.199 31.3209 101.516 31.262 100.786 31.262C99.6789 31.262 98.8073 31.474 98.1713 31.898C97.5589 32.2984 97.2527 32.852 97.2527 33.5587ZM120.963 39.2827C118.913 39.2827 117.359 38.8233 116.299 37.9047C115.262 36.9624 114.744 35.5962 114.744 33.806V24.6193H110.963V20.5913H114.744V15.892L119.585 14.7967V20.5913H124.849V24.6193H119.585V32.8167C119.585 33.6647 119.773 34.2771 120.15 34.654C120.527 35.0073 121.186 35.184 122.129 35.184C122.6 35.184 123.024 35.1604 123.401 35.1133C123.801 35.0427 124.237 34.9249 124.708 34.76V38.7527C124.213 38.9176 123.589 39.0471 122.835 39.1413C122.105 39.2356 121.481 39.2827 120.963 39.2827ZM131.563 39L141.739 14.2667H147.639L157.709 39H152.162L149.653 32.4987H139.442L136.898 39H131.563ZM141.032 28.4H148.099L144.565 19.284L141.032 28.4ZM159.138 46.208V20.5913H163.908V22.1107C165.415 20.9329 167.158 20.344 169.137 20.344C170.88 20.344 172.458 20.768 173.872 21.616C175.285 22.464 176.404 23.6064 177.228 25.0433C178.076 26.4567 178.5 28.0467 178.5 29.8133C178.5 31.58 178.076 33.1818 177.228 34.6187C176.38 36.032 175.238 37.1627 173.801 38.0107C172.364 38.8351 170.762 39.2473 168.996 39.2473C168.077 39.2473 167.194 39.1296 166.346 38.894C165.498 38.6349 164.708 38.2698 163.978 37.7987V46.208H159.138ZM168.36 35.1487C169.372 35.1487 170.279 34.9131 171.08 34.442C171.905 33.9709 172.552 33.3349 173.024 32.534C173.495 31.7331 173.73 30.8262 173.73 29.8133C173.73 28.8004 173.495 27.8936 173.024 27.0927C172.552 26.2682 171.905 25.6322 171.08 25.1847C170.279 24.7136 169.372 24.478 168.36 24.478C167.464 24.478 166.64 24.6311 165.886 24.9373C165.156 25.22 164.52 25.6558 163.978 26.2447V33.4173C164.496 33.9591 165.132 34.3831 165.886 34.6893C166.664 34.9956 167.488 35.1487 168.36 35.1487ZM181.075 46.208V20.5913H185.845V22.1107C187.352 20.9329 189.095 20.344 191.074 20.344C192.817 20.344 194.395 20.768 195.809 21.616C197.222 22.464 198.341 23.6064 199.165 25.0433C200.013 26.4567 200.437 28.0467 200.437 29.8133C200.437 31.58 200.013 33.1818 199.165 34.6187C198.317 36.032 197.175 37.1627 195.738 38.0107C194.301 38.8351 192.699 39.2473 190.933 39.2473C190.014 39.2473 189.131 39.1296 188.283 38.894C187.435 38.6349 186.646 38.2698 185.915 37.7987V46.208H181.075ZM190.297 35.1487C191.31 35.1487 192.216 34.9131 193.017 34.442C193.842 33.9709 194.49 33.3349 194.961 32.534C195.432 31.7331 195.667 30.8262 195.667 29.8133C195.667 28.8004 195.432 27.8936 194.961 27.0927C194.49 26.2682 193.842 25.6322 193.017 25.1847C192.216 24.7136 191.31 24.478 190.297 24.478C189.402 24.478 188.577 24.6311 187.823 24.9373C187.093 25.22 186.457 25.6558 185.915 26.2447V33.4173C186.434 33.9591 187.07 34.3831 187.823 34.6893C188.601 34.9956 189.425 35.1487 190.297 35.1487Z" fill="black"/>
</svg>
